<svg xmlns="http://www.w3.org/2000/svg" height="511pt" version="1.1" viewBox="-34 1 511 511.99999" width="511pt">
<g id="surface1">
<path d="M 222.15625 0 L 0.5 128 L 0.5 383.996094 L 222.15625 512 L 443.808594 383.996094 L 443.808594 128 Z M 222.15625 0 " style=" stroke:none;fill-rule:nonzero;fill:rgb(20%,45.098039%,61.960784%);fill-opacity:1;" />
<path d="M 222.15625 0 L 222.15625 512 L 443.808594 383.996094 L 443.808594 128 Z M 222.15625 0 " style=" stroke:none;fill-rule:nonzero;fill:rgb(15.294118%,36.078431%,49.803922%);fill-opacity:1;" />
<path d="M 115.335938 317.578125 L 53.757812 256 L 115.335938 194.417969 L 136.566406 215.648438 L 96.210938 256 L 136.566406 296.351562 Z M 115.335938 317.578125 " style=" stroke:none;fill-rule:nonzero;fill:rgb(32.941176%,72.941176%,98.823529%);fill-opacity:1;" />
<path d="M 328.972656 317.578125 L 307.746094 296.351562 L 348.097656 256 L 307.746094 215.648438 L 328.972656 194.417969 L 390.554688 256 Z M 328.972656 317.578125 " style=" stroke:none;fill-rule:nonzero;fill:rgb(29.019608%,63.921569%,87.058824%);fill-opacity:1;" />
<path d="M 244.058594 178.617188 L 270.90625 192.039062 L 200.246094 333.363281 L 173.394531 319.9375 Z M 244.058594 178.617188 " style=" stroke:none;fill-rule:nonzero;fill:rgb(32.941176%,72.941176%,98.823529%);fill-opacity:1;" />
</g>
</svg>